<svg width="32" height="32" viewBox="0 0 32 32" fill="none" xmlns="http://www.w3.org/2000/svg">
<path d="M22.6384 15.809L16.9279 10.3788C16.8041 10.2588 16.6569 10.1635 16.4947 10.0985C16.3325 10.0335 16.1585 10 15.9828 10C15.8071 10 15.6331 10.0335 15.4709 10.0985C15.3086 10.1635 15.1614 10.2588 15.0377 10.3788L9.39374 15.809C9.26898 15.928 9.16995 16.0697 9.10237 16.2258C9.03479 16.3818 9 16.5492 9 16.7183C9 16.8874 9.03479 17.0547 9.10237 17.2108C9.16995 17.3669 9.26898 17.5085 9.39374 17.6276C9.64314 17.8661 9.98052 18 10.3322 18C10.6838 18 11.0212 17.8661 11.2706 17.6276L15.9828 13.0939L20.6949 17.6276C20.9429 17.8642 21.2775 17.9976 21.6267 17.999C21.8019 18 21.9756 17.9677 22.1377 17.9039C22.2999 17.8402 22.4474 17.7463 22.5718 17.6276C22.701 17.5128 22.8053 17.3745 22.8787 17.2208C22.952 17.067 22.993 16.9007 22.9992 16.7316C23.0054 16.5625 22.9767 16.3939 22.9147 16.2356C22.8528 16.0772 22.7589 15.9322 22.6384 15.809Z" fill="#4d4d4f"/>
<path d="M22.6384 23.809L16.9279 18.3788C16.8041 18.2588 16.6569 18.1635 16.4947 18.0985C16.3325 18.0335 16.1585 18 15.9828 18C15.8071 18 15.6331 18.0335 15.4709 18.0985C15.3086 18.1635 15.1614 18.2588 15.0377 18.3788L9.39374 23.809C9.26898 23.928 9.16995 24.0697 9.10237 24.2258C9.03479 24.3818 9 24.5492 9 24.7183C9 24.8874 9.03479 25.0547 9.10237 25.2108C9.16995 25.3669 9.26898 25.5085 9.39374 25.6276C9.64314 25.8661 9.98052 26 10.3322 26C10.6838 26 11.0212 25.8661 11.2706 25.6276L15.9828 21.0939L20.6949 25.6276C20.9429 25.8642 21.2775 25.9976 21.6267 25.999C21.8019 26 21.9756 25.9677 22.1377 25.9039C22.2999 25.8402 22.4474 25.7463 22.5718 25.6276C22.701 25.5128 22.8053 25.3745 22.8787 25.2208C22.952 25.067 22.993 24.9007 22.9992 24.7316C23.0054 24.5625 22.9767 24.3939 22.9147 24.2356C22.8528 24.0772 22.7589 23.9322 22.6384 23.809Z" fill="#4d4d4f"/>
</svg>
